<svg viewBox="0 0 200 200" xmlns="http://www.w3.org/2000/svg">
  <!-- Pets Mania Logo -->
  <defs>
    <linearGradient id="gradient" x1="0%" y1="0%" x2="100%" y2="100%">
      <stop offset="0%" style="stop-color:#0d9488;stop-opacity:1" />
      <stop offset="100%" style="stop-color:#14b8a6;stop-opacity:1" />
    </linearGradient>
  </defs>
  
  <!-- Background circle -->
  <circle cx="100" cy="100" r="95" fill="none" stroke="#0d9488" stroke-width="2"/>
  
  <!-- Dog head -->
  <ellipse cx="100" cy="80" rx="30" ry="35" fill="#0d9488"/>
  
  <!-- Left ear -->
  <ellipse cx="75" cy="55" rx="11" ry="18" fill="#0d9488" transform="rotate(-15 75 55)"/>
  
  <!-- Right ear -->
  <ellipse cx="125" cy="55" rx="11" ry="18" fill="#0d9488" transform="rotate(15 125 55)"/>
  
  <!-- Snout -->
  <ellipse cx="100" cy="90" rx="16" ry="13" fill="#ec4899"/>
  
  <!-- Eyes -->
  <circle cx="92" cy="75" r="3" fill="white"/>
  <circle cx="108" cy="75" r="3" fill="white"/>
  
  <!-- Nose -->
  <ellipse cx="100" cy="92" rx="3" ry="2" fill="white"/>
  
  <!-- Heart -->
  <path d="M 100 130 Q 88 118 80 118 Q 73 118 73 126 Q 73 138 100 152 Q 127 138 127 126 Q 127 118 120 118 Q 112 118 100 130" fill="#ec4899"/>
</svg>
